HIERARCHY
ROOT Hips
{
	OFFSET 0.00000 0.00000 0.00000
	CHANNELS 6 Xposition Yposition Zposition Zrotation Yrotation Xrotation 
	JOINT LHipJoint
	{
		OFFSET 0 0 0
		CHANNELS 3 Zrotation Yrotation Xrotation
		JOINT LeftUpLeg
		{
			OFFSET 1.56857 -1.73443 1.15205
			CHANNELS 3 Zrotation Yrotation Xrotation
			JOINT LeftLeg
			{
				OFFSET 2.39362 -6.57643 0.00000
				CHANNELS 3 Zrotation Yrotation Xrotation
				JOINT LeftFoot
				{
					OFFSET 2.50952 -6.89485 0.00000
					CHANNELS 3 Zrotation Yrotation Xrotation
					JOINT LeftToeBase
					{
						OFFSET 0.17171 -0.47178 1.88682
						CHANNELS 3 Zrotation Yrotation Xrotation
						End Site
						{
							OFFSET 0.00000 -0.00000 0.98146
						}
					}
				}
			}
		}
	}
	JOINT RHipJoint
	{
		OFFSET 0 0 0
		CHANNELS 3 Zrotation Yrotation Xrotation
		JOINT RightUpLeg
		{
			OFFSET -1.28153 -1.73443 1.15205
			CHANNELS 3 Zrotation Yrotation Xrotation
			JOINT RightLeg
			{
				OFFSET -2.26861 -6.23296 0.00000
				CHANNELS 3 Zrotation Yrotation Xrotation
				JOINT RightFoot
				{
					OFFSET -2.54143 -6.98254 0.00000
					CHANNELS 3 Zrotation Yrotation Xrotation
					JOINT RightToeBase
					{
						OFFSET -0.23309 -0.64041 1.93119
						CHANNELS 3 Zrotation Yrotation Xrotation
						End Site
						{
							OFFSET -0.00000 -0.00000 1.02013
						}
					}
				}
			}
		}
	}
	JOINT LowerBack
	{
		OFFSET 0 0 0
		CHANNELS 3 Zrotation Yrotation Xrotation
		JOINT Spine
		{
			OFFSET -0.07096 2.10460 -0.27878
			CHANNELS 3 Zrotation Yrotation Xrotation
			JOINT Spine1
			{
				OFFSET -0.00826 2.13662 -0.08279
				CHANNELS 3 Zrotation Yrotation Xrotation
				JOINT Neck
				{
					OFFSET 0 0 0
					CHANNELS 3 Zrotation Yrotation Xrotation
					JOINT Neck1
					{
						OFFSET 0.03239 1.77799 0.24435
						CHANNELS 3 Zrotation Yrotation Xrotation
						JOINT Head
						{
							OFFSET 0.01026 1.74194 -0.49664
							CHANNELS 3 Zrotation Yrotation Xrotation
							End Site
							{
								OFFSET 0.00170 1.83057 -0.19653
							}
						}
					}
				}
				JOINT LeftShoulder
				{
					OFFSET 0 0 0
					CHANNELS 3 Zrotation Yrotation Xrotation
					JOINT LeftArm
					{
						OFFSET 3.19178 1.35907 -0.31412
						CHANNELS 3 Zrotation Yrotation Xrotation
						JOINT LeftForeArm
						{
							OFFSET 4.85247 -0.00000 -0.00000
							CHANNELS 3 Zrotation Yrotation Xrotation
							JOINT LeftHand
							{
								OFFSET 3.55584 -0.00000 0.00000
								CHANNELS 3 Zrotation Yrotation Xrotation
								JOINT LeftFingerBase
								{
									OFFSET 0 0 0
									CHANNELS 3 Zrotation Yrotation Xrotation
									JOINT LeftHandIndex1
									{
										OFFSET 0.69320 -0.00000 0.00000
										CHANNELS 3 Zrotation Yrotation Xrotation
										End Site
										{
											OFFSET 0.55888 -0.00000 0.00000
										}
									}
								}
								JOINT LThumb
								{
									OFFSET 0 0 0
									CHANNELS 3 Zrotation Yrotation Xrotation
									End Site
									{
										OFFSET 0.56741 -0.00000 0.56741
									}
								}
							}
						}
					}
				}
				JOINT RightShoulder
				{
					OFFSET 0 0 0
					CHANNELS 3 Zrotation Yrotation Xrotation
					JOINT RightArm
					{
						OFFSET -3.28999 1.24191 -0.26899
						CHANNELS 3 Zrotation Yrotation Xrotation
						JOINT RightForeArm
						{
							OFFSET -4.64462 -0.00000 0.00000
							CHANNELS 3 Zrotation Yrotation Xrotation
							JOINT RightHand
							{
								OFFSET -3.40703 -0.00000 0.00000
								CHANNELS 3 Zrotation Yrotation Xrotation
								JOINT RightFingerBase
								{
									OFFSET 0 0 0
									CHANNELS 3 Zrotation Yrotation Xrotation
									JOINT RightHandIndex1
									{
										OFFSET -0.61958 -0.00000 0.00000
										CHANNELS 3 Zrotation Yrotation Xrotation
										End Site
										{
											OFFSET -0.49952 -0.00000 0.00000
										}
									}
								}
								JOINT RThumb
								{
									OFFSET 0 0 0
									CHANNELS 3 Zrotation Yrotation Xrotation
									End Site
									{
										OFFSET -0.50715 -0.00000 0.50715
									}
								}
							}
						}
					}
				}
			}
		}
	}
}
MOTION
Frames: 12
Frame Time: .0083333
-32.8922 15.5034 -0.3839 0 0 0 0 0 0 -21 0 0 0 0 0 0 0 0 0 0 0 0 0 0 21 0 0 0 0 0 0 0 0 0 0 0 0 0 0 0 0 0 0 0 0 0 0 -16 0 0 21 0 0 11 0 0 0 -8 0 0 0 0 0 0 0 0 0 0 0 0 0 0 0 0 0 0 0 0 8 0 0 0 0 0 0 0 0 0 0 0 0 0 0 0 0 0
-32.8922 15.5034 -0.3839 101.5720 81.2025 104.5300 0.0000 0.0000 0.0000 -33.9492 -11.8626 -21.1002 4.6505 12.9791 39.2902 1.5941 -4.0652 -22.9041 0.0527 1.4819 4.0757 0.0000 0.0000 0.0000 3.3748 -5.3446 -7.3809 -10.2121 -17.5274 60.1950 -40.6752 14.3774 174.2328 -0.6977 -5.3394 14.8791 -9.5337 0.3387 12.9857 -4.8544 -0.6893 3.4506 0.3509 -0.1565 -3.5558 -0.9923 -0.5811 -30.5128 5.4375 -1.4207 13.2062 1.8607 -0.0051 9.0812 0.0000 0.0000 0.0000 -63.4057 10.0322 59.0923 74.9758 -59.1297 -47.0267 -0.0000 0.0000 -20.8532 42.8329 -25.9290 -22.0662 -7.1250 0.0000 -0.0000 7.5865 -3.3032 -8.0806 0.0000 0.0000 0.0000 80.7943 -26.0353 50.1019 -100.5397 59.5761 -69.1146 0.0000 -0.0000 -17.1388 -29.1244 -27.1363 14.2583 7.1250 -0.0000 -0.0000 1.2415 -60.3759 -0.4656
-32.4621 15.5116 -0.4144 99.2289 80.3397 101.8990 0.0000 0.0000 0.0000 -35.6723 -10.8466 -18.6152 4.5514 12.8600 38.8467 1.8194 -4.2765 -24.5028 0.0062 0.5098 1.4008 0.0000 0.0000 0.0000 2.6999 -3.1687 -10.3676 -9.3914 -17.0531 57.4342 -40.0268 5.1484 173.6017 -0.0259 1.0389 -2.8559 -10.6299 0.2863 13.5181 -5.0825 -0.9470 3.5516 0.7517 -0.2596 -3.6949 -0.8278 -0.3038 -30.2279 5.4649 -1.1031 12.9560 1.8894 0.1485 8.9370 0.0000 0.0000 0.0000 -64.6222 7.4399 57.6917 75.9517 -59.2410 -47.8649 -0.0000 0.0000 -19.6325 43.2162 -25.6033 -22.0988 -7.1250 0.0000 -0.0000 7.8841 -3.0664 -8.3726 0.0000 0.0000 0.0000 80.8682 -27.2784 49.0691 -95.6844 59.8776 -64.9208 0.0000 -0.0000 -16.4835 -29.8913 -28.9049 15.5277 7.1250 -0.0000 -0.0000 1.0324 -62.4684 -0.4383
-32.0501 15.5371 -0.4231 98.8962 79.0058 100.9000 0.0000 0.0000 0.0000 -37.6491 -9.4059 -15.8273 4.4161 12.6944 38.2352 2.0276 -5.3712 -25.7712 0.0235 0.9887 2.7178 0.0000 0.0000 0.0000 1.4730 -1.7792 -13.0232 -8.7600 -16.6508 55.2563 -39.9290 1.3900 174.2535 -1.0726 -6.5836 18.4876 -12.2652 0.2031 14.5381 -5.3805 -1.3681 3.8442 1.3999 -0.4304 -3.8476 -0.7499 -0.0789 -30.1347 5.5389 -0.8222 12.6126 1.9424 0.2891 8.7923 -0.0000 -0.0000 0.0000 -65.7098 4.4094 56.2083 77.3973 -59.3913 -49.1080 -0.0000 0.0000 -19.3302 43.2467 -26.6024 -22.8407 -7.1250 0.0000 -0.0000 7.6532 -4.2568 -8.2720 -0.0000 -0.0000 0.0000 80.7772 -28.5517 48.3571 -91.7240 59.9888 -61.4930 0.0000 -0.0000 -16.7080 -32.0399 -28.5526 16.6534 7.1250 -0.0000 -0.0000 -1.7987 -62.6683 0.7722
-31.6760 15.5568 -0.3956 103.0710 78.0005 104.7700 0.0000 0.0000 0.0000 -38.6561 -8.6612 -13.8185 4.4471 12.7328 38.3762 2.1843 -6.5932 -26.6621 0.0447 1.3640 3.7510 0.0000 0.0000 0.0000 0.9959 -1.6093 -16.8327 -8.3130 -16.3447 53.6823 -39.9219 0.1485 174.6664 -0.6212 -5.0437 14.0332 -13.7984 -0.0845 16.2586 -5.2636 -2.2854 3.6369 2.5406 -0.7927 -4.8232 -0.8619 0.1487 -30.0227 5.5885 -0.4840 12.6314 2.0290 0.4444 8.7697 -0.0000 0.0000 0.0000 -67.1296 1.8176 54.7739 79.3494 -59.5670 -50.7897 -0.0000 0.0000 -18.5122 42.8823 -27.0921 -22.9256 -7.1250 0.0000 -0.0000 7.3252 -4.6860 -7.9623 -0.0000 0.0000 0.0000 80.3109 -30.4248 47.9196 -88.7535 59.9941 -58.9206 0.0000 -0.0000 -17.2375 -33.6376 -27.3138 16.9775 7.1250 -0.0000 -0.0000 -4.2124 -61.7429 1.7178
-31.2344 15.5844 -0.3884 105.2200 77.7093 106.8850 0.0000 0.0000 0.0000 -38.8344 -7.7933 -11.8510 4.4103 12.6873 38.2088 2.3578 -7.4903 -27.6772 0.0584 1.5593 4.2892 0.0000 0.0000 0.0000 1.2285 -0.6378 -20.2911 -8.1170 -16.2047 52.9831 -39.9156 0.0058 174.5119 -0.7596 -5.5661 15.5305 -14.4450 -0.3500 16.4870 -5.0876 -2.7525 3.7349 3.1719 -1.0182 -4.7252 -1.0348 0.3140 -30.0011 5.7638 -0.2078 12.3481 2.1567 0.5835 8.6577 -0.0000 -0.0000 0.0000 -68.5551 -1.0397 53.4212 81.1870 -59.7045 -52.3753 -0.0000 0.0000 -16.4103 43.0866 -26.8895 -22.9298 -7.1250 0.0000 -0.0000 7.4908 -4.5300 -8.1265 -0.0000 -0.0000 0.0000 80.0640 -32.3771 47.1791 -87.4077 59.9746 -57.7552 0.0000 -0.0000 -18.0141 -34.3457 -26.0889 16.7257 7.1250 -0.0000 -0.0000 -5.3957 -60.5696 2.0516
-30.7677 15.6376 -0.3948 108.4590 77.5146 109.9710 0.0000 0.0000 0.0000 -38.9131 -6.6887 -9.0561 4.0670 12.2490 36.6188 2.3950 -8.6811 -27.8468 0.0644 1.6370 4.5035 0.0000 0.0000 0.0000 1.5048 -0.1199 -23.1958 -8.2199 -16.2786 53.3510 -39.9099 -0.0591 174.3536 -0.5565 -4.7784 13.2777 -14.6572 -0.6513 16.7165 -4.8755 -3.1899 3.8852 3.6011 -1.2414 -4.5876 -0.9019 0.4375 -30.1432 5.3523 -0.0050 12.1698 2.0214 0.6362 8.6057 0.0000 0.0000 0.0000 -70.1047 -3.8872 52.2592 83.1363 -59.8212 -54.0594 -0.0000 0.0000 -14.4909 43.2263 -26.9029 -23.0399 -7.1250 0.0000 -0.0000 7.5659 -4.6011 -8.2180 0.0000 0.0000 0.0000 79.8887 -34.7632 46.3013 -87.6152 59.9785 -57.9349 0.0000 -0.0000 -18.7763 -34.7797 -25.4100 16.5941 7.1250 -0.0000 -0.0000 -6.0671 -59.9216 2.2143
-30.3431 15.6784 -0.4152 101.3210 78.2437 103.6270 0.0000 0.0000 0.0000 -38.4751 -4.6589 -8.2193 3.7413 11.8080 35.0561 2.5093 -8.3892 -28.5393 0.0208 0.9313 2.5598 0.0000 0.0000 0.0000 1.5231 3.5920 -27.5283 -8.1670 -16.2407 53.1619 -39.9219 -0.6916 174.9209 -0.4186 -4.1528 11.5070 -14.7973 -0.2626 16.2449 -4.6448 -2.6882 3.5296 3.8252 -0.9868 -4.7890 -0.9862 0.5356 -30.6468 5.2008 0.1636 12.6203 2.0203 0.7010 8.8327 -0.0000 -0.0000 0.0000 -71.8059 -6.4032 51.3757 85.4966 -59.9232 -56.1009 -0.0000 0.0000 -13.1673 43.1566 -27.1320 -23.1516 -7.1250 0.0000 -0.0000 7.4688 -4.8412 -8.1395 -0.0000 -0.0000 0.0000 79.6128 -37.3555 45.5788 -88.6780 59.9934 -58.8551 0.0000 -0.0000 -19.5115 -34.6004 -25.8546 16.7435 7.1250 -0.0000 -0.0000 -5.7602 -60.3741 2.1640
-29.8774 15.7529 -0.4109 104.6950 78.5877 106.9780 0.0000 0.0000 0.0000 -37.7533 -3.5641 -5.4651 3.3682 11.2684 33.1906 2.5284 -8.8850 -28.6341 0.0108 0.6695 1.8399 0.0000 0.0000 0.0000 2.2467 4.0575 -30.5701 -8.5211 -16.4895 54.4186 -39.9233 -1.1340 175.0441 -0.6343 -5.0956 14.1814 -14.7019 -0.5485 16.5073 -4.2508 -3.1029 3.4646 4.2857 -1.1868 -4.9164 -0.9357 0.7714 -30.6740 4.8148 0.5263 12.7465 1.9343 0.8244 8.8664 -0.0000 -0.0000 0.0000 -73.4843 -8.4219 50.5437 88.4065 -59.9904 -58.6200 -0.0000 0.0000 -11.9891 43.1112 -27.5322 -23.3997 -7.1250 0.0000 -0.0000 7.3414 -5.2895 -8.0507 -0.0000 -0.0000 0.0000 79.1046 -39.8396 45.3420 -89.5576 59.9993 -59.6169 0.0000 -0.0000 -19.7872 -34.5859 -27.1219 17.4494 7.1250 -0.0000 -0.0000 -5.4664 -61.7863 2.2363
-29.3928 15.8391 -0.4033 109.6130 78.3456 111.7180 0.0000 0.0000 0.0000 -37.5255 -2.8889 -2.0027 2.9186 10.5621 30.8169 2.4496 -9.2131 -28.1614 0.0026 0.3303 0.9076 0.0000 0.0000 0.0000 2.5842 3.7779 -33.1495 -9.0682 -16.8514 56.3257 -39.9291 -0.3936 175.0958 -0.8448 -5.8625 16.3859 -15.0680 -1.0357 16.6432 -3.9212 -3.8033 3.5353 4.9715 -1.5398 -4.7354 -0.5445 1.1376 -30.5534 4.1967 0.9755 12.8141 1.7232 0.9759 8.8587 -0.0000 -0.0000 0.0000 -74.9634 -10.3367 49.7413 91.0919 -59.9955 -60.9456 -0.0000 0.0000 -11.0175 43.3945 -27.8100 -23.8023 -7.1250 0.0000 -0.0000 7.4275 -5.7267 -8.1977 -0.0000 -0.0000 0.0000 78.2034 -41.8670 45.6286 -89.5880 59.9994 -59.6432 0.0000 -0.0000 -19.4288 -34.3003 -27.7460 17.6189 7.1250 -0.0000 -0.0000 -4.9437 -62.4013 2.0936
-28.9159 15.9190 -0.4061 110.2560 77.9611 112.6770 0.0000 0.0000 0.0000 -37.9586 -2.4751 1.0480 2.4392 9.7265 28.0956 2.3346 -8.4715 -27.4875 0.0067 -0.5290 -1.4536 0.0000 0.0000 0.0000 2.2920 4.5726 -36.1560 -9.6151 -17.1876 58.1939 -39.8904 -1.0176 174.0234 -0.5698 -4.8341 13.4361 -15.7771 -1.3751 16.2427 -3.7411 -4.2990 3.4342 5.6168 -1.7932 -4.4602 -0.5195 1.4798 -30.2154 4.0932 1.4542 12.5849 1.7484 1.1834 8.7129 0.0000 0.0000 0.0000 -76.2769 -11.9335 49.0522 93.9330 -59.9415 -63.4054 -0.0000 0.0000 -10.5778 43.7436 -28.0270 -24.2144 -7.1250 0.0000 -0.0000 7.5645 -6.1219 -8.3981 0.0000 0.0000 0.0000 77.0749 -43.7311 46.3983 -90.1438 59.9999 -60.1245 0.0000 -0.0000 -20.0578 -34.6831 -28.0056 18.0007 7.1250 -0.0000 -0.0000 -5.3734 -62.7946 2.3259
-28.4272 16.0152 -0.4179 111.1320 77.6716 113.8440 0.0000 0.0000 0.0000 -38.5028 -2.5156 4.4716 1.9648 8.7924 25.1482 2.1737 -7.3261 -26.5404 0.0310 -1.1359 -3.1229 0.0000 0.0000 0.0000 2.0462 5.5191 -38.7182 -10.3839 -17.6201 60.7638 -39.8515 -1.1863 173.0423 -0.4097 -4.1088 11.3829 -16.1545 -1.7118 15.9878 -3.6323 -4.7871 3.2112 6.0089 -2.0250 -4.4235 -0.2136 1.8297 -30.1814 3.8171 1.8378 12.9534 1.6672 1.3440 8.8313 -0.0000 -0.0000 0.0000 -77.5774 -12.6699 48.4085 97.7772 -59.7702 -66.7301 -0.0000 0.0000 -10.2153 43.9476 -28.4713 -24.6797 -7.1250 0.0000 -0.0000 7.5597 -6.7220 -8.4627 -0.0000 -0.0000 0.0000 76.0050 -45.7719 47.0322 -90.3592 59.9995 -60.3111 0.0000 -0.0000 -20.7115 -33.9703 -26.5306 16.7491 7.1250 -0.0000 -0.0000 -4.8288 -60.9632 1.8806
